<?xml version="1.0" encoding="UTF-8"?>
<svg width="512" height="512" viewBox="0 0 512 512" fill="none" xmlns="http://www.w3.org/2000/svg">
  <circle cx="256" cy="256" r="256" fill="#B5E1D9"/>
  <path d="M256 128C256 128 192 192 192 256C192 320 256 384 256 384C256 384 320 320 320 256C320 192 256 128 256 128Z" fill="#1A1A1A"/>
  <path d="M192 192C192 192 128 256 128 320C128 384 192 448 192 448C192 448 256 384 256 320C256 256 192 192 192 192Z" fill="#1A1A1A"/>
  <path d="M320 192C320 192 256 256 256 320C256 384 320 448 320 448C320 448 384 384 384 320C384 256 320 192 320 192Z" fill="#1A1A1A"/>
</svg>