<?xml version="1.0" standalone="no"?>
<!DOCTYPE svg PUBLIC "-//W3C//DTD SVG 20010904//EN"
 "http://www.w3.org/TR/2001/REC-SVG-20010904/DTD/svg10.dtd">
<svg version="1.0" xmlns="http://www.w3.org/2000/svg"
 width="585.000000pt" height="488.000000pt" viewBox="0 0 585.000000 488.000000"
 preserveAspectRatio="xMidYMid meet">
<metadata>
Created by potrace 1.16, written by Peter Selinger 2001-2019
</metadata>
<g transform="translate(0.000000,488.000000) scale(0.100000,-0.100000)"
fill="#000000" stroke="none">
<path d="M3085 3885 c-29 -30 -59 -55 -67 -55 -8 0 -27 -13 -43 -30 -23 -24
-37 -30 -72 -30 -85 0 -121 -75 -87 -178 24 -71 36 -82 87 -83 38 0 40 -1 20
-11 -13 -6 -23 -15 -23 -19 0 -12 35 -29 61 -29 17 0 20 -4 15 -22 -3 -13 -11
-50 -17 -83 -11 -58 -29 -97 -29 -63 0 8 -24 38 -52 66 -29 27 -70 70 -90 95
-42 50 -66 60 -101 42 -13 -6 -38 -10 -55 -7 -27 3 -40 -4 -97 -54 -76 -68
-85 -90 -56 -139 28 -47 27 -56 -9 -90 -44 -42 -41 -84 8 -125 43 -36 73 -46
99 -32 10 5 43 13 73 17 54 7 55 7 38 -12 -16 -17 -26 -73 -14 -73 9 0 81 44
87 53 9 12 12 5 43 -89 26 -80 89 -364 82 -371 -2 -3 -29 47 -59 109 -30 62
-66 123 -79 135 -35 33 -84 50 -167 57 -85 9 -82 18 -31 -104 47 -113 60 -122
174 -130 57 -4 101 -12 111 -20 36 -30 53 -85 65 -209 6 -69 18 -139 26 -155
13 -29 14 -29 9 -5 -15 82 -25 179 -31 299 -6 119 -4 145 16 219 25 98 79 233
90 226 4 -3 11 -20 14 -39 4 -19 12 -39 20 -45 7 -6 11 -23 9 -38 -10 -64 60
-103 125 -69 15 7 51 17 81 21 84 11 116 54 92 119 -8 18 -6 28 6 37 33 28 34
57 4 127 -15 37 -31 75 -34 85 -9 25 -33 21 -80 -12 -46 -33 -117 -51 -117
-31 0 7 -7 10 -17 6 -22 -9 -21 -8 52 48 70 55 88 61 162 53 l55 -6 -39 34
c-79 70 -114 90 -159 89 -38 -1 -50 -8 -116 -68 -84 -78 -118 -128 -118 -173
0 -18 -4 -33 -9 -33 -4 0 -7 10 -5 23 2 12 8 60 14 107 14 101 39 210 50 210
4 0 10 -9 13 -21 7 -28 25 -16 35 24 l8 32 15 -29 c21 -43 42 -53 76 -36 15 7
42 14 58 16 41 3 88 15 102 26 6 5 14 26 18 47 4 24 18 49 37 67 59 57 71 104
37 148 -16 20 -29 26 -60 26 -22 0 -48 -4 -57 -9 -9 -4 -39 -11 -65 -15 -42
-5 -48 -4 -45 12 2 9 26 29 53 43 27 14 51 33 53 43 4 17 -111 136 -130 136
-6 0 -34 -25 -63 -55z m-166 -825 c-5 -85 -12 -164 -16 -175 -3 -11 -9 -65
-12 -120 l-6 -100 -19 90 c-16 80 -49 196 -71 249 -7 16 -5 18 9 13 51 -20 66
-19 66 1 0 11 -7 25 -15 32 -13 11 -12 16 10 42 14 16 25 39 25 50 0 18 30 81
37 75 1 -2 -2 -72 -8 -157z m166 70 c-3 -5 -11 -10 -16 -10 -6 0 -7 5 -4 10 3
6 11 10 16 10 6 0 7 -4 4 -10z m-56 -45 c11 -30 10 -37 -4 -51 -20 -20 -72
-123 -96 -189 -10 -27 -18 -43 -18 -35 -2 32 29 239 39 266 21 55 60 59 79 9z"/>
<path d="M4069 2123 c-5 -25 -3 -83 3 -83 10 0 30 68 23 80 -7 12 -24 13 -26
3z"/>
<path d="M1507 2092 c-40 -44 -13 -92 61 -107 75 -16 77 -75 1 -75 -22 0 -49
5 -59 10 -11 6 -21 6 -24 1 -21 -33 118 -51 150 -19 18 18 22 64 6 80 -6 6
-34 18 -64 28 -55 18 -70 38 -48 65 15 18 63 20 92 4 17 -9 19 -8 16 8 -5 27
-107 32 -131 5z"/>
<path d="M1750 2103 c0 -3 16 -55 36 -115 46 -136 57 -138 99 -15 16 48 32 87
35 87 3 0 19 -39 35 -87 20 -57 35 -88 45 -88 9 0 28 35 52 100 41 111 44 125
25 125 -8 0 -25 -37 -42 -90 -16 -49 -32 -90 -35 -90 -4 0 -19 41 -35 91 -36
117 -49 116 -91 -6 -36 -101 -29 -103 -74 28 -13 37 -30 67 -37 67 -7 0 -13
-3 -13 -7z"/>
<path d="M2210 1995 l0 -115 80 0 c64 0 80 3 80 15 0 12 -14 15 -64 15 -63 0
-64 0 -70 31 -3 17 -3 35 0 40 3 5 30 9 60 9 30 0 54 5 54 10 0 6 -24 10 -54
10 -46 0 -56 3 -61 20 -3 11 -3 29 0 40 5 17 15 20 71 20 36 0 64 4 64 10 0 6
-33 10 -80 10 l-80 0 0 -115z"/>
<path d="M2490 1995 l0 -116 82 3 c54 2 83 7 86 16 3 9 -15 12 -67 12 l-71 0
0 40 0 40 60 0 c33 0 60 4 60 10 0 6 -27 10 -61 10 l-60 0 3 38 3 37 63 3 c90
4 76 22 -18 22 l-80 0 0 -115z"/>
<path d="M2740 2100 c0 -5 18 -10 40 -10 l40 0 0 -105 c0 -86 3 -105 15 -105
11 0 15 20 17 103 l3 102 38 3 c20 2 37 7 37 13 0 5 -42 9 -95 9 -57 0 -95 -4
-95 -10z"/>
<path d="M3182 1998 c2 -93 6 -113 18 -113 11 0 14 9 12 31 -3 31 -3 31 55 37
46 5 63 11 81 32 29 34 28 70 -3 100 -21 22 -33 25 -95 25 l-71 0 3 -112z
m122 82 c34 -13 44 -54 20 -81 -14 -15 -28 -19 -63 -17 -45 3 -46 3 -49 42 -2
21 -1 44 2 52 6 16 53 18 90 4z"/>
<path d="M3490 1995 l0 -115 80 0 c64 0 80 3 80 15 0 12 -14 15 -65 15 l-65 0
0 40 0 40 55 0 c30 0 55 5 55 10 0 6 -25 10 -55 10 l-55 0 0 40 0 40 65 0 c37
0 65 4 65 10 0 6 -33 10 -80 10 l-80 0 0 -115z"/>
<path d="M3837 2103 c-9 -14 -97 -213 -97 -218 0 -3 6 -5 14 -5 7 0 19 14 26
30 12 29 15 30 76 30 60 0 64 -1 79 -30 14 -27 35 -41 35 -22 0 4 -21 55 -47
114 -34 75 -53 108 -65 108 -9 0 -19 -3 -21 -7z m63 -130 c0 -9 -16 -13 -45
-13 -25 0 -45 4 -45 9 0 4 10 32 22 61 l22 54 23 -50 c12 -27 23 -55 23 -61z"/>
<path d="M4222 2094 c-25 -17 -30 -65 -8 -83 7 -6 37 -18 65 -27 55 -16 71
-35 51 -59 -14 -17 -82 -20 -111 -5 -15 8 -19 7 -19 -4 0 -8 16 -20 36 -26 68
-23 140 11 132 62 -3 23 -33 42 -105 69 -34 12 -43 35 -21 57 15 15 62 16 88
2 23 -12 40 7 19 21 -23 14 -103 10 -127 -7z"/>
<path d="M2728 1685 c-5 -39 7 -34 17 8 4 16 3 27 -3 27 -5 0 -12 -16 -14 -35z"/>
<path d="M2595 1524 c-37 -69 -65 -128 -62 -130 3 -3 14 12 26 33 32 59 111
223 106 223 -2 0 -34 -57 -70 -126z"/>
<path d="M2643 1504 c4 -7 -2 -31 -12 -55 -19 -43 -19 -59 0 -59 6 0 8 4 4 9
-3 5 2 28 11 51 14 33 14 44 4 53 -9 8 -11 9 -7 1z"/>
<path d="M2854 1499 c-3 -6 -2 -15 3 -20 5 -5 9 -1 9 11 0 23 -2 24 -12 9z"/>
<path d="M3008 1443 c-15 -29 -25 -53 -23 -53 10 0 56 80 53 92 -1 7 -15 -11
-30 -39z"/>
<path d="M3320 1490 c0 -5 5 -10 11 -10 5 0 7 5 4 10 -3 6 -8 10 -11 10 -2 0
-4 -4 -4 -10z"/>
<path d="M3065 1466 c0 -13 3 -22 8 -19 4 2 7 13 7 24 0 10 -3 19 -7 19 -5 0
-8 -11 -8 -24z"/>
<path d="M3125 1480 c4 -6 -2 -25 -13 -43 -29 -47 -35 -89 -18 -112 13 -18 14
-17 9 22 -4 34 0 51 21 87 30 52 31 56 10 56 -8 0 -12 -5 -9 -10z"/>
<path d="M2797 1462 c-18 -20 -23 -72 -8 -72 5 0 7 9 4 20 -3 11 2 31 11 45
19 29 16 33 -7 7z"/>
<path d="M3260 1440 c-6 -12 -8 -29 -4 -38 5 -13 9 -8 15 18 9 42 5 50 -11 20z"/>
</g>
</svg>
